<?xml version="1.0" encoding="iso-8859-1"?>
<!-- Generator: Adobe Illustrator 19.0.0, SVG Export Plug-In . SVG Version: 6.00 Build 0)  -->
<svg version="1.1" id="Capa_1" xmlns="http://www.w3.org/2000/svg" xmlns:xlink="http://www.w3.org/1999/xlink" x="0px" y="0px"
	 viewBox="0 0 196.267 196.267" style="enable-background:new 0 0 196.267 196.267;" xml:space="preserve">
<path style="fill:#602F75;" d="M116.424,196.266c-0.082,0-0.162,0-0.244-0.002c-6.699-0.097-12.752-4.041-18.045-11.744
	c-5.294,7.702-11.346,11.646-18.045,11.744c-12.587,0.215-22.728-13.786-25.655-18.277c-5.77-1.266-9.977-4.041-12.517-8.265
	c-3.209-5.333-2.777-11.563-2.118-15.164c-15.892-8.383-17.493-25.431-15.809-35.343c-8.137-5.926-13.117-13.22-14.816-21.71
	c-2.621-13.1,3.483-24.854,5.552-28.351c-1.039-16.964,2.331-29.752,10.025-38.016c6.04-6.489,13.111-8.318,16.691-8.832
	c5.453-11.471,14.72-13.684,20.347-13.145C78.167-6.046,92.643,1.385,98.133,5.307c5.49-3.924,19.965-11.353,36.342,3.854
	c5.627-0.541,14.896,1.673,20.347,13.145c3.581,0.514,10.651,2.343,16.691,8.832c7.694,8.265,11.064,21.052,10.025,38.016
	c2.068,3.497,8.173,15.251,5.552,28.351c-1.698,8.491-6.678,15.785-14.816,21.71c1.684,9.912,0.082,26.96-15.809,35.343
	c0.659,3.601,1.091,9.83-2.118,15.164c-2.541,4.224-6.748,7.001-12.518,8.265C138.928,182.447,128.917,196.264,116.424,196.266z
	 M98.07,174.682c1.246,0,2.524,0.679,3.123,1.773c4.68,8.538,9.755,12.908,15.085,12.984c0.048,0,0.097,0,0.145,0
	c8.885,0,17.702-11.711,20.361-16.249c0.512-0.874,1.386-1.476,2.386-1.642c4.492-0.746,7.627-2.534,9.315-5.32
	c3.127-5.156,0.804-12.418,0.782-12.491c-0.551-1.683,0.273-3.519,1.901-4.214c19.355-8.253,14.227-30.077,14-31.002
	c-0.345-1.399,0.225-2.872,1.425-3.668c10.68-7.086,15.425-16.34,14.1-27.503c-1.029-8.666-5.425-15.374-5.47-15.44
	c-0.418-0.63-0.618-1.386-0.565-2.138c1.109-15.468-1.596-26.866-8.04-33.881c-6.238-6.787-13.814-6.961-14.133-6.965
	c-1.379-0.017-2.632-0.862-3.145-2.14c-5.221-12.988-15.077-10.703-15.176-10.675c-1.154,0.288-2.383-0.049-3.232-0.893
	c-6.958-6.924-14.116-9.588-21.267-7.912c-5.473,1.28-9.033,4.709-9.069,4.743c-0.638,0.623-1.505,0.983-2.396,0.983h-0.13
	c-0.903,0-1.768-0.357-2.408-0.993c-0.024-0.024-3.586-3.453-9.059-4.733c-7.151-1.671-14.309,0.988-21.267,7.912
	c-0.848,0.843-2.074,1.176-3.232,0.893c-0.99-0.224-10.119-1.905-15.176,10.675c-0.519,1.292-1.773,2.14-3.166,2.14
	c-0.299,0.003-7.875,0.177-14.112,6.965c-6.444,7.013-9.149,18.412-8.04,33.881c0.055,0.758-0.145,1.512-0.568,2.144
	c-0.039,0.061-4.437,6.767-5.466,15.433c-1.324,11.165,3.42,20.417,14.1,27.503c1.207,0.8,1.777,2.273,1.423,3.676
	c-0.225,0.918-5.354,22.741,14.001,30.995c1.637,0.698,2.463,2.536,1.898,4.224c-0.02,0.061-2.342,7.323,0.783,12.479
	c1.688,2.785,4.823,4.576,9.315,5.32c0.997,0.166,1.872,0.768,2.384,1.638c2.69,4.567,11.616,16.319,20.518,16.251
	c5.327-0.082,10.397-4.451,15.075-12.984C95.676,175.361,96.823,174.682,98.07,174.682z M98.2,9.622h0.017H98.2z"/>
<path style="fill:#FFFFFF;" d="M133.209,47.766c0,0,0-15.894,19.168-22.252"/>
<path style="fill:#602F75;" d="M133.211,51.167c-0.009,0-0.017,0-0.026,0c-1.876-0.014-3.389-1.526-3.389-3.401
	c0-0.749,0.244-18.439,21.507-25.491c1.782-0.592,3.721,0.375,4.314,2.166c0.594,1.789-0.375,3.721-2.166,4.314
	c-16.451,5.456-16.821,18.483-16.828,19.034C136.597,49.657,135.074,51.167,133.211,51.167z"/>
<path style="fill:#FFFFFF;" d="M136.404,108.163c0,0,9.777,26.348,31.945,9.537"/>
<path style="fill:#602F75;" d="M154.426,126.726c-1.722,0-3.413-0.241-5.07-0.724c-11.054-3.219-15.949-16.108-16.152-16.654
	c-0.655-1.768,0.246-3.732,2.012-4.388c1.768-0.652,3.729,0.244,4.386,2.007c0.077,0.203,3.978,10.262,11.687,12.486
	c4.369,1.263,9.416-0.244,14.996-4.477c1.504-1.14,3.644-0.843,4.782,0.657c1.138,1.502,0.845,3.644-0.657,4.782
	C164.876,124.617,159.519,126.726,154.426,126.726z"/>
<path style="fill:#FFFFFF;" d="M120.431,146.309c0,0,3.195-12.715-9.583-25.429"/>
<g>
	<path style="fill:#602F75;" d="M120.434,149.722c-0.275,0-0.555-0.034-0.835-0.104c-1.821-0.457-2.929-2.299-2.485-4.122
		c0.118-0.51,2.413-11.165-8.675-22.2c-1.336-1.33-1.341-3.492-0.012-4.828c1.33-1.335,3.49-1.341,4.826-0.012
		c13.993,13.925,10.636,28.087,10.487,28.682C123.353,148.689,121.962,149.722,120.434,149.722z"/>
	<path style="fill:#602F75;" d="M151.934,92.972c-6.849,0-15.157-1.981-21.113-9.868c-5.084-6.733-7.298-12.575-8.916-16.841
		c-1.872-4.941-2.412-5.763-3.847-5.883c-1.879-0.154-3.277-1.802-3.123-3.681s1.83-3.29,3.68-3.123
		c5.97,0.49,7.769,5.238,9.673,10.267c1.553,4.096,3.485,9.194,7.98,15.147c8.663,11.47,24.974,5.794,25.667,5.547
		c1.77-0.631,3.726,0.285,4.366,2.053c0.64,1.772-0.271,3.722-2.041,4.366C163.826,91.115,158.565,92.972,151.934,92.972z"/>
	<path style="fill:#602F75;" d="M98.07,181.509c-1.884,0-3.413-1.529-3.413-3.413V9.622c0-1.884,1.529-3.413,3.413-3.413
		c1.884,0,3.413,1.529,3.413,3.413v168.474C101.484,179.979,99.954,181.509,98.07,181.509z"/>
</g>
<path style="fill:#FFFFFF;" d="M119.646,35.577c0,0,0.329,22.475-11.204,37.03"/>
<path style="fill:#602F75;" d="M108.44,76.019c-0.742,0-1.49-0.241-2.118-0.739c-1.478-1.171-1.725-3.318-0.555-4.796
	c10.617-13.399,10.469-34.649,10.465-34.862c-0.024-1.884,1.483-3.432,3.367-3.458c1.864,0.041,3.432,1.478,3.459,3.362
	c0.014,0.968,0.207,23.868-11.943,39.199C110.444,75.576,109.447,76.019,108.44,76.019z"/>
<path style="fill:#FFFFFF;" d="M110.848,162.201c0,0,6.39-19.072,19.168-19.072"/>
<path style="fill:#602F75;" d="M110.848,165.616c-0.36,0-0.725-0.058-1.085-0.178c-1.787-0.599-2.751-2.533-2.152-4.321
	c0.292-0.874,7.342-21.402,22.403-21.402c1.884,0,3.413,1.529,3.413,3.413c0,1.884-1.529,3.413-3.413,3.413
	c-10.04,0-15.875,16.575-15.93,16.744C113.606,164.713,112.275,165.616,110.848,165.616z"/>
<g>
	<path style="fill:#602F75;" d="M123.624,25.75c-0.712,0-1.428-0.22-2.041-0.679c-1.51-1.13-1.818-3.268-0.69-4.777l8.202-10.965
		c1.13-1.512,3.27-1.819,4.777-0.689c1.51,1.13,1.818,3.268,0.69,4.777l-8.202,10.965C125.689,25.277,124.662,25.75,123.624,25.75z"
		/>
	<path style="fill:#602F75;" d="M63.879,91.869c-1.884,0-3.413-1.529-3.413-3.413V54.439c0-1.884,1.529-3.413,3.413-3.413
		c1.884,0,3.413,1.529,3.413,3.413v34.017C67.292,90.342,65.765,91.869,63.879,91.869z"/>
	<path style="fill:#602F75;" d="M74.136,91.869H50.207c-1.884,0-3.413-1.529-3.413-3.413c0-1.884,1.529-3.413,3.413-3.413h23.929
		c1.884,0,3.413,1.529,3.413,3.413C77.549,90.34,76.02,91.869,74.136,91.869z"/>
	<path style="fill:#602F75;" d="M74.136,112.279c-1.884,0-3.413-1.529-3.413-3.413v-20.41c0-1.884,1.529-3.413,3.413-3.413
		c1.884,0,3.413,1.529,3.413,3.413v20.41C77.549,110.752,76.02,112.279,74.136,112.279z"/>
	<path style="fill:#602F75;" d="M74.136,149.698c-1.884,0-3.413-1.529-3.413-3.413v-17.009c0-1.884,1.529-3.413,3.413-3.413
		c1.884,0,3.413,1.529,3.413,3.413v17.009C77.549,148.171,76.02,149.698,74.136,149.698z"/>
</g>
<g>
	<ellipse style="fill:#00E7FF;" cx="63.882" cy="44.236" rx="10.257" ry="10.206"/>
	<path style="fill:#00E7FF;" d="M63.879,57.852c-7.538,0-13.669-6.11-13.669-13.617s6.132-13.617,13.669-13.617
		s13.669,6.11,13.669,13.617S71.417,57.852,63.879,57.852z M63.879,37.442c-3.773,0-6.842,3.046-6.842,6.791
		c0,3.744,3.069,6.791,6.842,6.791c3.773,0,6.842-3.046,6.842-6.791S67.652,37.442,63.879,37.442z"/>
	<ellipse style="fill:#00E7FF;" cx="39.955" cy="88.456" rx="10.257" ry="10.206"/>
	<path style="fill:#00E7FF;" d="M39.95,102.075c-7.538,0-13.669-6.11-13.669-13.618S32.413,74.84,39.95,74.84
		s13.669,6.11,13.669,13.618S47.486,102.075,39.95,102.075z M39.95,81.665c-3.773,0-6.842,3.046-6.842,6.791
		c0,3.744,3.069,6.791,6.842,6.791c3.773,0,6.842-3.046,6.842-6.791C46.792,84.712,43.723,81.665,39.95,81.665z"/>
	<ellipse style="fill:#00E7FF;" cx="74.139" cy="119.074" rx="10.257" ry="10.206"/>
	<path style="fill:#00E7FF;" d="M74.136,132.689c-7.538,0-13.669-6.11-13.669-13.618c0-7.509,6.132-13.619,13.669-13.619
		c7.537,0,13.669,6.11,13.669,13.619C87.805,126.581,81.673,132.689,74.136,132.689z M74.136,112.279
		c-3.773,0-6.842,3.048-6.842,6.793c0,3.744,3.069,6.791,6.842,6.791s6.842-3.046,6.842-6.791
		C80.978,115.327,77.908,112.279,74.136,112.279z"/>
</g>
<g>
	<ellipse style="fill:#EA3457;" cx="156.179" cy="51.046" rx="6.844" ry="6.803"/>
	<ellipse style="fill:#EA3457;" cx="118.581" cy="95.266" rx="6.844" ry="6.803"/>
</g>
<g>
	<ellipse style="fill:#FFE600;" cx="159.592" cy="105.471" rx="6.844" ry="6.803"/>
	<ellipse style="fill:#FFE600;" cx="118.581" cy="176.895" rx="6.844" ry="6.803"/>
</g>
<ellipse style="fill:#EA3457;" cx="135.665" cy="159.897" rx="6.844" ry="6.803"/>
<g>
	<ellipse style="fill:#00E7FF;" cx="74.139" cy="156.484" rx="10.257" ry="10.206"/>
	<path style="fill:#00E7FF;" d="M74.136,170.11c-7.538,0-13.669-6.11-13.669-13.619s6.132-13.618,13.669-13.618
		c7.537,0,13.669,6.11,13.669,13.618C87.805,164,81.673,170.11,74.136,170.11z M74.136,149.698c-3.773,0-6.842,3.046-6.842,6.791
		s3.069,6.793,6.842,6.793s6.842-3.048,6.842-6.793S77.908,149.698,74.136,149.698z"/>
</g>
<g>
</g>
<g>
</g>
<g>
</g>
<g>
</g>
<g>
</g>
<g>
</g>
<g>
</g>
<g>
</g>
<g>
</g>
<g>
</g>
<g>
</g>
<g>
</g>
<g>
</g>
<g>
</g>
<g>
</g>
</svg>
